<svg width="30" height="14" viewBox="0 0 30 14" fill="none" xmlns="http://www.w3.org/2000/svg">
<g id="icon-privacy 1" clip-path="url(#clip0_2_296)">
<g id="final---dec.11-2020">
<g id="Final-Copy-2">
<path id="Vector" fill-rule="evenodd" clip-rule="evenodd" d="M7.39998 12.8H14.2L17.3 1.19995H7.39998C4.19998 1.19995 1.59998 3.79995 1.59998 6.99995C1.59998 10.2 4.19998 12.8 7.39998 12.8Z" fill="#0066FF" stroke="#0066FF" stroke-width="2"/>
</g>
</g>
<path id="Vector_2" fill-rule="evenodd" clip-rule="evenodd" d="M22.6 0H7.40002C3.50002 0 0.400024 3.1 0.400024 7C0.400024 10.9 3.50002 14 7.40002 14H22.6C26.5 14 29.6 10.9 29.6 7C29.6 3.1 26.4 0 22.6 0ZM1.60002 7C1.60002 3.8 4.20002 1.2 7.40002 1.2H17.3L14.2 12.8H7.40002C4.20002 12.8 1.60002 10.2 1.60002 7Z" fill="white"/>
<path id="Vector_3" d="M24.6 3.99998C24.8 4.19998 24.8 4.59998 24.6 4.79998L22.5 6.99998L24.7 9.19998C24.9 9.39998 24.9 9.79998 24.7 9.99998C24.5 10.2 24.1 10.2 23.9 9.99998L21.7 7.79998L19.5 9.99998C19.3 10.2 18.9 10.2 18.7 9.99998C18.5 9.79998 18.5 9.39998 18.7 9.19998L20.8 6.99998L18.6 4.79998C18.4 4.59998 18.4 4.19998 18.6 3.99998C18.8 3.79998 19.2 3.79998 19.4 3.99998L21.6 6.19998L23.8 3.99998C24 3.79998 24.4 3.79998 24.6 3.99998Z" fill="#0066FF"/>
<path id="Vector_4" d="M12.7 4.09995C12.9 4.29995 13 4.69995 12.8 4.89995L8.6 9.79995C8.5 9.89995 8.4 9.99995 8.3 9.99995C8.1 10.1 7.8 10.1 7.6 9.89995L5.4 7.69995C5.2 7.49995 5.2 7.09995 5.4 6.89995C5.6 6.69995 6 6.69995 6.2 6.89995L8 8.59995L11.8 4.09995C12 3.89995 12.4 3.89995 12.7 4.09995Z" fill="white"/>
</g>
<defs>
<clipPath id="clip0_2_296">
<rect width="30" height="14" fill="white"/>
</clipPath>
</defs>
</svg>
