<svg width="164" height="33" viewBox="0 0 164 33" fill="none" xmlns="http://www.w3.org/2000/svg">
<g clip-path="url(#clip0_2_186)">
<mask id="mask0_2_186" style="mask-type:luminance" maskUnits="userSpaceOnUse" x="0" y="0" width="164" height="33">
<path d="M164 0H0V33H164V0Z" fill="white"/>
</mask>
<g mask="url(#mask0_2_186)">
<mask id="mask1_2_186" style="mask-type:luminance" maskUnits="userSpaceOnUse" x="0" y="0" width="164" height="33">
<path d="M164 0H0V33H164V0Z" fill="white"/>
</mask>
<g mask="url(#mask1_2_186)">
<path d="M153.33 7.02034C153.552 8.68884 152.451 10.249 150.844 10.4847C149.208 10.7248 147.712 9.5008 147.529 7.77249C147.351 6.0718 148.522 4.56424 150.117 4.3837C151.685 4.2062 153.112 5.37765 153.33 7.02034ZM163.61 2.1217C162.285 5.65819 158.687 10.712 151.847 11.6424C144.243 12.6765 142.204 7.98558 142.832 3.91587C140.39 8.50117 140.783 11.6631 144.08 15.5742C147.311 19.4081 150.195 23.3808 152.318 27.3902C151.508 22.2372 150.818 17.3614 157.063 13.61C164.127 9.36577 164.602 6.90688 163.61 2.1217ZM9.82287 30.3436C13.3577 30.3436 16.1787 28.8102 17.5723 26.0841L14.3093 24.1761C13.2217 25.9138 11.5902 26.6976 9.78878 26.6976C6.66185 26.6976 4.28264 24.5507 4.28264 21.007C4.28264 17.4972 6.66185 15.3162 9.78878 15.3162C11.5902 15.3162 13.2217 16.1001 14.3093 17.8379L17.5723 15.9296C16.1787 13.1695 13.3577 11.7042 9.82287 11.7042C4.07868 11.7042 0 15.5548 0 21.007C0 26.459 4.07868 30.3436 9.82287 30.3436ZM28.3463 11.7042C25.4233 11.7042 22.6022 12.4539 20.6648 13.9531L22.3303 17.0541C23.6898 15.9296 25.7972 15.2481 27.8365 15.2481C30.8615 15.2481 32.357 16.7133 32.357 19.2009V19.4736H27.6665C22.1603 19.4736 20.1211 21.8588 20.1211 24.8915C20.1211 28.0605 22.7382 30.3436 26.8848 30.3436C29.6039 30.3436 31.5753 29.4577 32.595 27.8902V30.1051H36.6056V19.4394C36.6056 14.1917 33.5806 11.7042 28.3463 11.7042ZM27.7685 27.2429C25.5933 27.2429 24.3017 26.2545 24.3017 24.7211C24.3017 23.3922 25.0834 22.3017 27.9724 22.3017H32.357V24.4145C31.6433 26.2887 29.8419 27.2429 27.7685 27.2429ZM46.2582 14.5666V11.9086H42.2134V30.1051H46.462V21.2795C46.462 17.5653 48.5014 15.657 51.7304 15.657C52.0362 15.657 52.3421 15.691 52.7159 15.7592V11.7042C49.691 11.7042 47.4817 12.6583 46.2582 14.5666ZM73.3813 21.1091C73.3813 15.4184 69.5064 11.7042 64.2043 11.7042C58.8 11.7042 54.8233 15.5888 54.8233 21.007C54.8233 26.425 58.766 30.3436 64.8501 30.3436C67.977 30.3436 70.5262 29.3213 72.1576 27.3791L69.8804 24.7553C68.5888 26.0841 66.9913 26.7317 64.952 26.7317C61.791 26.7317 59.5817 25.0279 59.0719 22.37H73.3132C73.3472 21.961 73.3813 21.4498 73.3813 21.1091ZM64.2043 15.1118C66.9913 15.1118 68.9966 16.9177 69.3365 19.5417H59.0379C59.4458 16.8837 61.4511 15.1118 64.2043 15.1118ZM87.6903 11.7042C85.379 11.7042 83.3397 12.4879 81.8781 14.1235V4.82089H77.6295V30.1051H81.6742V27.754C83.1016 29.4917 85.209 30.3436 87.6903 30.3436C92.9926 30.3436 96.9011 26.6634 96.9011 21.007C96.9011 15.3505 92.9926 11.7042 87.6903 11.7042ZM87.2144 26.6976C84.1554 26.6976 81.8102 24.4826 81.8102 21.007C81.8102 17.5313 84.1554 15.3162 87.2144 15.3162C90.2733 15.3162 92.5849 17.5312 92.5849 21.007C92.5849 24.4827 90.2733 26.6976 87.2144 26.6976ZM109.273 30.3436C114.915 30.3436 118.96 26.459 118.96 21.007C118.96 15.5548 114.915 11.7042 109.273 11.7042C103.698 11.7042 99.6195 15.5548 99.6195 21.007C99.6195 26.459 103.698 30.3436 109.273 30.3436ZM109.273 26.6976C106.213 26.6976 103.903 24.4826 103.903 21.007C103.903 17.5313 106.213 15.3162 109.273 15.3162C112.366 15.3162 114.677 17.5312 114.677 21.007C114.677 24.4827 112.366 26.6976 109.273 26.6976ZM138.945 30.1051L131.841 20.8025L138.639 11.9086H134.05L129.598 17.8719L125.145 11.9086H120.421L127.184 20.8706L120.115 30.1051H124.805L129.496 23.8012L134.152 30.1051H138.945Z" fill="#662C91"/>
<path d="M158.681 27.3337C162.839 29.4871 162.449 31.3285 159.817 32.583C158.107 33.3975 154.775 33.081 153.548 31.0797L152.852 26.7732C152.565 25.0039 152.416 23.4613 152.573 22.006C154.012 24.3678 155.782 25.8325 158.681 27.3337ZM143.666 3.95977C143.412 5.66385 143.684 7.23301 144.422 8.45093C144.646 7.02771 145.337 4.6126 147.439 2.23211C148.312 1.24346 147.464 0.0337199 146.539 0.00148215C145.551 -0.0329716 144.707 0.534511 144.021 1.57217L143.666 3.95977ZM158.914 7.39017C160.453 6.70033 161.748 5.06382 162.374 3.37686C162.48 3.08809 162.863 2.12637 162.863 2.12637C162.777 1.53592 162.455 0.769913 161.984 0.488043C161.335 0.0984408 160.184 0.615876 160.14 1.72486C160.041 4.16383 159.502 6.15005 158.914 7.39017Z" fill="#BDCCD4"/>
</g>
</g>
</g>
<defs>
<clipPath id="clip0_2_186">
<rect width="164" height="33" fill="white"/>
</clipPath>
</defs>
</svg>
