<svg width="128" height="26" viewBox="0 0 128 26" fill="none" xmlns="http://www.w3.org/2000/svg">
<mask id="mask0_2_220" style="mask-type:luminance" maskUnits="userSpaceOnUse" x="0" y="0" width="128" height="26">
<path d="M128 0H0V26H128V0Z" fill="white"/>
</mask>
<g mask="url(#mask0_2_220)">
<mask id="mask1_2_220" style="mask-type:luminance" maskUnits="userSpaceOnUse" x="0" y="0" width="128" height="26">
<path d="M128 0H0V26H128V0Z" fill="white"/>
</mask>
<g mask="url(#mask1_2_220)">
<path d="M119.672 5.53116C119.845 6.84574 118.986 8.07494 117.732 8.26069C116.455 8.44984 115.287 7.48546 115.145 6.12376C115.005 4.78383 115.919 3.59606 117.164 3.45381C118.389 3.31396 119.502 4.23692 119.672 5.53116ZM127.695 1.67163C126.661 4.45795 123.853 8.43973 118.514 9.17279C112.58 9.98753 110.988 6.29166 111.479 3.08521C109.573 6.69788 109.88 9.18911 112.453 12.2705C114.975 15.2912 117.225 18.4212 118.883 21.5801C118.25 17.5202 117.711 13.6787 122.585 10.723C128.099 7.37908 128.47 5.44177 127.695 1.67163ZM7.66663 23.9071C10.4255 23.9071 12.6273 22.6989 13.7149 20.5511L11.1683 19.0478C10.3194 20.4169 9.04602 21.0344 7.64003 21.0344C5.19949 21.0344 3.34255 19.343 3.34255 16.5509C3.34255 13.7856 5.19949 12.0673 7.64003 12.0673C9.04602 12.0673 10.3194 12.6849 11.1683 14.0541L13.7149 12.5506C12.6273 10.3759 10.4255 9.22147 7.66663 9.22147C3.18336 9.22147 0 12.2553 0 16.5509C0 20.8465 3.18336 23.9071 7.66663 23.9071ZM22.124 9.22147C19.8426 9.22147 17.6408 9.81217 16.1286 10.9934L17.4285 13.4366C18.4896 12.5506 20.1344 12.0137 21.726 12.0137C24.087 12.0137 25.2543 13.1681 25.2543 15.1279V15.3428H21.5934C17.2959 15.3428 15.7042 17.2221 15.7042 19.6115C15.7042 22.1083 17.7469 23.9071 20.9833 23.9071C23.1055 23.9071 24.6441 23.2091 25.44 21.9741V23.7191H28.5702V15.3159C28.5702 11.1814 26.2092 9.22147 22.124 9.22147ZM21.673 21.4641C19.9752 21.4641 18.9672 20.6854 18.9672 19.4772C18.9672 18.4302 19.5773 17.571 21.8322 17.571H25.2543V19.2357C24.6972 20.7123 23.2912 21.4641 21.673 21.4641ZM36.1039 11.4767V9.38252H32.9471V23.7191H36.263V16.7657C36.263 13.8393 37.8547 12.3358 40.3749 12.3358C40.6136 12.3358 40.8524 12.3626 41.1441 12.4163V9.22147C38.7832 9.22147 37.0589 9.97323 36.1039 11.4767ZM57.2732 16.6314C57.2732 12.1478 54.2489 9.22147 50.1106 9.22147C45.8926 9.22147 42.7889 12.2821 42.7889 16.5509C42.7889 20.8197 45.8661 23.9071 50.6147 23.9071C53.0552 23.9071 55.0449 23.1016 56.3181 21.5714L54.5408 19.5042C53.5327 20.5511 52.2859 21.0614 50.6942 21.0614C48.2271 21.0614 46.5028 19.719 46.1049 17.6248H57.2201C57.2466 17.3026 57.2732 16.8998 57.2732 16.6314ZM50.1106 11.9063C52.2859 11.9063 53.851 13.3291 54.1163 15.3965H46.0784C46.3967 13.3023 47.9618 11.9063 50.1106 11.9063ZM68.4412 9.22147C66.6372 9.22147 65.0456 9.83897 63.9048 11.1276V3.79826H60.5889V23.7191H63.7457V21.8668C64.8598 23.2359 66.5046 23.9071 68.4412 23.9071C72.5796 23.9071 75.6301 21.0075 75.6301 16.5509C75.6301 12.0943 72.5796 9.22147 68.4412 9.22147ZM68.0698 21.0344C65.6822 21.0344 63.8518 19.2893 63.8518 16.5509C63.8518 13.8125 65.6822 12.0673 68.0698 12.0673C70.4572 12.0673 72.2614 13.8124 72.2614 16.5509C72.2614 19.2894 70.4572 21.0344 68.0698 21.0344ZM85.2859 23.9071C89.6894 23.9071 92.8465 20.8465 92.8465 16.5509C92.8465 12.2553 89.6894 9.22147 85.2859 9.22147C80.9353 9.22147 77.7518 12.2553 77.7518 16.5509C77.7518 20.8465 80.9353 23.9071 85.2859 23.9071ZM85.2859 21.0344C82.8982 21.0344 81.0948 19.2893 81.0948 16.5509C81.0948 13.8125 82.8982 12.0673 85.2859 12.0673C87.7 12.0673 89.5042 13.8124 89.5042 16.5509C89.5042 19.2894 87.7 21.0344 85.2859 21.0344ZM108.445 23.7191L102.901 16.3898L108.206 9.38252H104.625L101.149 14.0809L97.674 9.38252H93.987L99.2658 16.4435L93.7482 23.7191H97.4087L101.07 18.7524L104.704 23.7191H108.445Z" fill="white"/>
<path d="M123.848 21.5357C127.094 23.2323 126.789 24.683 124.735 25.6715C123.401 26.3132 120.8 26.0638 119.842 24.487L119.299 21.094C119.075 19.7001 118.958 18.4846 119.081 17.3381C120.204 19.1989 121.586 20.3529 123.848 21.5357ZM112.129 3.11982C111.931 4.46243 112.144 5.69874 112.719 6.65831C112.895 5.53698 113.434 3.63417 115.074 1.75863C115.756 0.979694 115.094 0.0265672 114.372 0.00116776C113.601 -0.0259776 112.942 0.42113 112.407 1.23868L112.129 3.11982ZM124.031 5.82256C125.232 5.27905 126.242 3.98968 126.731 2.66056C126.814 2.43304 127.113 1.67532 127.113 1.67532C127.045 1.21012 126.794 0.606598 126.427 0.384519C125.92 0.0775594 125.022 0.485236 124.987 1.35898C124.91 3.28059 124.49 4.8455 124.031 5.82256Z" fill="white"/>
</g>
</g>
</svg>
